<mxfile host="app.diagrams.net" modified="2024-06-02T16:05:00.096Z" agent="Mozilla/5.0 (Windows NT 10.0; Win64; x64) AppleWebKit/537.36 (KHTML, like Gecko) Chrome/125.0.0.0 Safari/537.36" etag="9DBNm0iEnXm01v_dGGN6" version="24.4.13" type="device">
  <diagram id="C5RBs43oDa-KdzZeNtuy" name="Page-1">
    <mxGraphModel dx="1674" dy="746" grid="1" gridSize="10" guides="1" tooltips="1" connect="1" arrows="1" fold="1" page="1" pageScale="1" pageWidth="827" pageHeight="1169" math="0" shadow="0">
      <root>
        <mxCell id="WIyWlLk6GJQsqaUBKTNV-0" />
        <mxCell id="WIyWlLk6GJQsqaUBKTNV-1" parent="WIyWlLk6GJQsqaUBKTNV-0" />
        <mxCell id="WIyWlLk6GJQsqaUBKTNV-3" value="Server started listening" style="rounded=1;whiteSpace=wrap;html=1;fontSize=12;glass=0;strokeWidth=1;shadow=0;fillColor=#FF1F3D;" parent="WIyWlLk6GJQsqaUBKTNV-1" vertex="1">
          <mxGeometry x="160" y="80" width="120" height="40" as="geometry" />
        </mxCell>
        <mxCell id="4ir1mDW0pdUKCXU2N3-H-0" value="" style="endArrow=classic;html=1;rounded=0;entryX=0;entryY=0.5;entryDx=0;entryDy=0;" edge="1" parent="WIyWlLk6GJQsqaUBKTNV-1" target="4ir1mDW0pdUKCXU2N3-H-1">
          <mxGeometry width="50" height="50" relative="1" as="geometry">
            <mxPoint x="280" y="100" as="sourcePoint" />
            <mxPoint x="430" y="150" as="targetPoint" />
          </mxGeometry>
        </mxCell>
        <mxCell id="4ir1mDW0pdUKCXU2N3-H-1" value="Client Connects" style="rounded=1;whiteSpace=wrap;html=1;fontSize=12;glass=0;strokeWidth=1;shadow=0;fillColor=#21FF3F;" vertex="1" parent="WIyWlLk6GJQsqaUBKTNV-1">
          <mxGeometry x="450" y="130" width="120" height="40" as="geometry" />
        </mxCell>
        <mxCell id="4ir1mDW0pdUKCXU2N3-H-2" value="Server Createds a private socket with the client, and waits for login/signup message, sign to the user loginRequestHandler" style="rounded=1;whiteSpace=wrap;html=1;fontSize=12;glass=0;strokeWidth=1;shadow=0;fillColor=#FF1F3D;" vertex="1" parent="WIyWlLk6GJQsqaUBKTNV-1">
          <mxGeometry x="100" y="180" width="210" height="60" as="geometry" />
        </mxCell>
        <mxCell id="4ir1mDW0pdUKCXU2N3-H-3" value="Server Deserialize this message, checks its relveance, and correction." style="rounded=1;whiteSpace=wrap;html=1;fontSize=12;glass=0;strokeWidth=1;shadow=0;fillColor=#FF1F3D;" vertex="1" parent="WIyWlLk6GJQsqaUBKTNV-1">
          <mxGeometry x="130" y="270" width="150" height="60" as="geometry" />
        </mxCell>
        <mxCell id="4ir1mDW0pdUKCXU2N3-H-5" value="&lt;b&gt;&lt;font style=&quot;font-size: 18px;&quot;&gt;Server&lt;/font&gt;&lt;/b&gt;" style="text;strokeColor=none;align=center;fillColor=none;html=1;verticalAlign=middle;whiteSpace=wrap;rounded=0;" vertex="1" parent="WIyWlLk6GJQsqaUBKTNV-1">
          <mxGeometry x="190" y="30" width="60" height="30" as="geometry" />
        </mxCell>
        <mxCell id="4ir1mDW0pdUKCXU2N3-H-6" value="&lt;span style=&quot;font-size: 18px;&quot;&gt;&lt;b&gt;Client&lt;/b&gt;&lt;/span&gt;&lt;div&gt;&lt;span style=&quot;font-size: 18px;&quot;&gt;&lt;b&gt;&lt;br&gt;&lt;/b&gt;&lt;/span&gt;&lt;/div&gt;" style="text;strokeColor=none;align=center;fillColor=none;html=1;verticalAlign=middle;whiteSpace=wrap;rounded=0;" vertex="1" parent="WIyWlLk6GJQsqaUBKTNV-1">
          <mxGeometry x="490" y="30" width="60" height="30" as="geometry" />
        </mxCell>
        <mxCell id="4ir1mDW0pdUKCXU2N3-H-8" value="" style="endArrow=classic;html=1;rounded=0;exitX=0;exitY=0.5;exitDx=0;exitDy=0;" edge="1" parent="WIyWlLk6GJQsqaUBKTNV-1" source="4ir1mDW0pdUKCXU2N3-H-1">
          <mxGeometry width="50" height="50" relative="1" as="geometry">
            <mxPoint x="329" y="170" as="sourcePoint" />
            <mxPoint x="320" y="200" as="targetPoint" />
            <Array as="points">
              <mxPoint x="400" y="180" />
            </Array>
          </mxGeometry>
        </mxCell>
        <mxCell id="4ir1mDW0pdUKCXU2N3-H-11" value="" style="endArrow=classic;html=1;rounded=0;exitX=1;exitY=0.5;exitDx=0;exitDy=0;" edge="1" parent="WIyWlLk6GJQsqaUBKTNV-1" source="4ir1mDW0pdUKCXU2N3-H-2">
          <mxGeometry width="50" height="50" relative="1" as="geometry">
            <mxPoint x="390" y="410" as="sourcePoint" />
            <mxPoint x="480" y="300" as="targetPoint" />
          </mxGeometry>
        </mxCell>
        <mxCell id="4ir1mDW0pdUKCXU2N3-H-12" value="Clients sends login message contians username&amp;nbsp; and password" style="rounded=1;whiteSpace=wrap;html=1;fontSize=12;glass=0;strokeWidth=1;shadow=0;fillColor=#21FF3F;" vertex="1" parent="WIyWlLk6GJQsqaUBKTNV-1">
          <mxGeometry x="480" y="280" width="180" height="40" as="geometry" />
        </mxCell>
        <mxCell id="4ir1mDW0pdUKCXU2N3-H-13" value="" style="endArrow=classic;html=1;rounded=0;entryX=1;entryY=0.5;entryDx=0;entryDy=0;exitX=0;exitY=0.5;exitDx=0;exitDy=0;" edge="1" parent="WIyWlLk6GJQsqaUBKTNV-1" source="4ir1mDW0pdUKCXU2N3-H-12" target="4ir1mDW0pdUKCXU2N3-H-3">
          <mxGeometry width="50" height="50" relative="1" as="geometry">
            <mxPoint x="390" y="410" as="sourcePoint" />
            <mxPoint x="440" y="360" as="targetPoint" />
          </mxGeometry>
        </mxCell>
        <mxCell id="4ir1mDW0pdUKCXU2N3-H-14" value="" style="endArrow=classic;html=1;rounded=0;exitX=0.433;exitY=0.967;exitDx=0;exitDy=0;exitPerimeter=0;" edge="1" parent="WIyWlLk6GJQsqaUBKTNV-1" source="4ir1mDW0pdUKCXU2N3-H-3">
          <mxGeometry width="50" height="50" relative="1" as="geometry">
            <mxPoint x="185" y="390" as="sourcePoint" />
            <mxPoint x="195" y="400" as="targetPoint" />
          </mxGeometry>
        </mxCell>
        <mxCell id="4ir1mDW0pdUKCXU2N3-H-15" value="" style="endArrow=classic;html=1;rounded=0;exitX=1.047;exitY=0.583;exitDx=0;exitDy=0;exitPerimeter=0;entryX=0.5;entryY=0;entryDx=0;entryDy=0;" edge="1" parent="WIyWlLk6GJQsqaUBKTNV-1" source="4ir1mDW0pdUKCXU2N3-H-3" target="4ir1mDW0pdUKCXU2N3-H-16">
          <mxGeometry width="50" height="50" relative="1" as="geometry">
            <mxPoint x="390" y="410" as="sourcePoint" />
            <mxPoint x="490" y="410" as="targetPoint" />
          </mxGeometry>
        </mxCell>
        <mxCell id="4ir1mDW0pdUKCXU2N3-H-16" value="if error occurred, error response is received" style="rounded=1;whiteSpace=wrap;html=1;fontSize=12;glass=0;strokeWidth=1;shadow=0;fillColor=#21FF3F;" vertex="1" parent="WIyWlLk6GJQsqaUBKTNV-1">
          <mxGeometry x="460" y="410" width="180" height="40" as="geometry" />
        </mxCell>
        <mxCell id="4ir1mDW0pdUKCXU2N3-H-17" value="Success recieved, user is logged in" style="rounded=1;whiteSpace=wrap;html=1;fontSize=12;glass=0;strokeWidth=1;shadow=0;fillColor=#21FF3F;" vertex="1" parent="WIyWlLk6GJQsqaUBKTNV-1">
          <mxGeometry x="460" y="490" width="180" height="40" as="geometry" />
        </mxCell>
        <mxCell id="4ir1mDW0pdUKCXU2N3-H-21" style="edgeStyle=orthogonalEdgeStyle;rounded=0;orthogonalLoop=1;jettySize=auto;html=1;exitX=0.5;exitY=1;exitDx=0;exitDy=0;entryX=0;entryY=0.75;entryDx=0;entryDy=0;" edge="1" parent="WIyWlLk6GJQsqaUBKTNV-1" source="4ir1mDW0pdUKCXU2N3-H-19" target="4ir1mDW0pdUKCXU2N3-H-17">
          <mxGeometry relative="1" as="geometry" />
        </mxCell>
        <mxCell id="4ir1mDW0pdUKCXU2N3-H-19" value="checks if login info fits a user that is saved in the data base, if it is alright returned a success response and assigns a menuRequestHandler" style="rounded=1;whiteSpace=wrap;html=1;fontSize=12;glass=0;strokeWidth=1;shadow=0;fillColor=#FF1F3D;" vertex="1" parent="WIyWlLk6GJQsqaUBKTNV-1">
          <mxGeometry x="40" y="400" width="220" height="80" as="geometry" />
        </mxCell>
        <mxCell id="4ir1mDW0pdUKCXU2N3-H-20" value="" style="endArrow=classic;html=1;rounded=0;exitX=1;exitY=0.5;exitDx=0;exitDy=0;entryX=0;entryY=0.5;entryDx=0;entryDy=0;" edge="1" parent="WIyWlLk6GJQsqaUBKTNV-1" source="4ir1mDW0pdUKCXU2N3-H-19" target="4ir1mDW0pdUKCXU2N3-H-16">
          <mxGeometry width="50" height="50" relative="1" as="geometry">
            <mxPoint x="390" y="410" as="sourcePoint" />
            <mxPoint x="440" y="360" as="targetPoint" />
          </mxGeometry>
        </mxCell>
      </root>
    </mxGraphModel>
  </diagram>
</mxfile>
